# WaveFront *.obj file (generated by Autodesk ATF)

mtllib BroPlankor.mtl

g Solid1

v -15.227079 0.000000 -20.614932
v -15.227079 0.000000 79.385071
v -15.227079 10.000000 -20.614932
v -15.227079 10.000000 79.385071
v 4.772920 0.000000 -20.614932
v 4.772920 0.000000 79.385071
v 4.772920 10.000000 -20.614932
v 4.772920 10.000000 79.385071
v 14.772921 0.000000 -20.614932
v 14.772921 0.000000 79.385071
v 14.772921 10.000000 -20.614932
v 14.772921 10.000000 79.385071
v 34.772921 0.000000 -20.614932
v 34.772921 0.000000 79.385071
v 34.772921 10.000000 -20.614932
v 34.772921 10.000000 79.385071
v 44.772921 0.000000 -20.614932
v 44.772921 0.000000 79.385071
v 44.772921 10.000000 -20.614932
v 44.772921 10.000000 79.385071
v 64.772921 0.000000 -20.614932
v 64.772921 0.000000 79.385071
v 64.772921 10.000000 -20.614932
v 64.772921 10.000000 79.385071
v 74.772921 0.000000 -20.614932
v 74.772921 0.000000 79.385071
v 74.772921 10.000000 -20.614932
v 74.772921 10.000000 79.385071
v 94.772921 0.000000 -20.614932
v 94.772921 0.000000 79.385071
v 94.772921 10.000000 -20.614932
v 94.772921 10.000000 79.385071
v 104.772921 0.000000 -20.614932
v 104.772921 0.000000 79.385071
v 104.772921 10.000000 -20.614932
v 104.772921 10.000000 79.385071
v 124.772921 0.000000 -20.614932
v 124.772921 0.000000 79.385071
v 124.772921 10.000000 -20.614932
v 124.772921 10.000000 79.385071
v 134.772921 0.000000 -20.614932
v 134.772921 0.000000 79.385071
v 134.772921 10.000000 -20.614932
v 134.772921 10.000000 79.385071
v 154.772921 0.000000 -20.614932
v 154.772921 0.000000 79.385071
v 154.772921 10.000000 -20.614932
v 154.772921 10.000000 79.385071
v 164.772911 0.000000 -20.614932
v 164.772911 0.000000 79.385071
v 164.772911 10.000000 -20.614932
v 164.772911 10.000000 79.385071
v 184.772911 0.000000 -20.614932
v 184.772911 0.000000 79.385071
v 184.772911 10.000000 -20.614932
v 184.772911 10.000000 79.385071
v 194.772911 0.000000 -20.614932
v 194.772911 0.000000 79.385071
v 194.772911 10.000000 -20.614932
v 194.772911 10.000000 79.385071
v 214.772911 0.000000 -20.614932
v 214.772911 0.000000 79.385071
v 214.772911 10.000000 -20.614932
v 214.772911 10.000000 79.385071
v 224.772911 0.000000 -20.614932
v 224.772911 0.000000 79.385071
v 224.772911 10.000000 -20.614932
v 224.772911 10.000000 79.385071
v 244.772911 0.000000 -20.614932
v 244.772911 0.000000 79.385071
v 244.772911 10.000000 -20.614932
v 244.772911 10.000000 79.385071
v 254.772911 0.000000 -20.614932
v 254.772911 0.000000 79.385071
v 254.772911 10.000000 -20.614932
v 254.772911 10.000000 79.385071
v 274.772911 0.000000 -20.614932
v 274.772911 0.000000 79.385071
v 274.772911 10.000000 -20.614932
v 274.772911 10.000000 79.385071
vt 0.000000 0.000000 0.000000
vt 2.000000 0.000000 0.000000
vt 2.000000 1.000000 0.000000
vt 0.000000 1.000000 0.000000
vt 0.000000 0.000000 0.000000
vt 10.000000 0.000000 0.000000
vt 10.000000 1.000000 0.000000
vt 0.000000 1.000000 0.000000
vt 0.000000 0.000000 0.000000
vt 2.000000 0.000000 0.000000
vt 2.000000 1.000000 0.000000
vt 0.000000 1.000000 0.000000
vt 0.000000 0.000000 0.000000
vt 10.000000 0.000000 0.000000
vt 10.000000 1.000000 0.000000
vt 0.000000 1.000000 0.000000
vt 5.000000 1.000000 0.000000
vt -5.000000 1.000000 0.000000
vt -5.000000 -1.000000 0.000000
vt 5.000000 -1.000000 0.000000
vt 5.000000 1.000000 0.000000
vt -5.000000 1.000000 0.000000
vt -5.000000 -1.000000 0.000000
vt 5.000000 -1.000000 0.000000
vt 0.000000 0.000000 0.000000
vt 2.000000 0.000000 0.000000
vt 2.000000 1.000000 0.000000
vt 0.000000 1.000000 0.000000
vt 0.000000 0.000000 0.000000
vt 10.000000 0.000000 0.000000
vt 10.000000 1.000000 0.000000
vt 0.000000 1.000000 0.000000
vt 0.000000 0.000000 0.000000
vt 2.000000 0.000000 0.000000
vt 2.000000 1.000000 0.000000
vt 0.000000 1.000000 0.000000
vt 0.000000 0.000000 0.000000
vt 10.000000 0.000000 0.000000
vt 10.000000 1.000000 0.000000
vt 0.000000 1.000000 0.000000
vt 5.000000 1.000000 0.000000
vt -5.000000 1.000000 0.000000
vt -5.000000 -1.000000 0.000000
vt 5.000000 -1.000000 0.000000
vt 5.000000 1.000000 0.000000
vt -5.000000 1.000000 0.000000
vt -5.000000 -1.000000 0.000000
vt 5.000000 -1.000000 0.000000
vt 0.000000 0.000000 0.000000
vt 2.000000 0.000000 0.000000
vt 2.000000 1.000000 0.000000
vt 0.000000 1.000000 0.000000
vt 0.000000 0.000000 0.000000
vt 10.000000 0.000000 0.000000
vt 10.000000 1.000000 0.000000
vt 0.000000 1.000000 0.000000
vt 0.000000 0.000000 0.000000
vt 2.000000 0.000000 0.000000
vt 2.000000 1.000000 0.000000
vt 0.000000 1.000000 0.000000
vt 0.000000 0.000000 0.000000
vt 10.000000 0.000000 0.000000
vt 10.000000 1.000000 0.000000
vt 0.000000 1.000000 0.000000
vt 5.000000 1.000000 0.000000
vt -5.000000 1.000000 0.000000
vt -5.000000 -1.000000 0.000000
vt 5.000000 -1.000000 0.000000
vt 5.000000 1.000000 0.000000
vt -5.000000 1.000000 0.000000
vt -5.000000 -1.000000 0.000000
vt 5.000000 -1.000000 0.000000
vt 0.000000 0.000000 0.000000
vt 2.000000 0.000000 0.000000
vt 2.000000 1.000000 0.000000
vt 0.000000 1.000000 0.000000
vt 0.000000 0.000000 0.000000
vt 10.000000 0.000000 0.000000
vt 10.000000 1.000000 0.000000
vt 0.000000 1.000000 0.000000
vt 0.000000 0.000000 0.000000
vt 2.000000 0.000000 0.000000
vt 2.000000 1.000000 0.000000
vt 0.000000 1.000000 0.000000
vt 0.000000 0.000000 0.000000
vt 10.000000 0.000000 0.000000
vt 10.000000 1.000000 0.000000
vt 0.000000 1.000000 0.000000
vt 5.000000 1.000000 0.000000
vt -5.000000 1.000000 0.000000
vt -5.000000 -1.000000 0.000000
vt 5.000000 -1.000000 0.000000
vt 5.000000 1.000000 0.000000
vt -5.000000 1.000000 0.000000
vt -5.000000 -1.000000 0.000000
vt 5.000000 -1.000000 0.000000
vt 0.000000 0.000000 0.000000
vt 2.000000 0.000000 0.000000
vt 2.000000 1.000000 0.000000
vt 0.000000 1.000000 0.000000
vt 0.000000 0.000000 0.000000
vt 10.000000 0.000000 0.000000
vt 10.000000 1.000000 0.000000
vt 0.000000 1.000000 0.000000
vt 0.000000 0.000000 0.000000
vt 2.000000 0.000000 0.000000
vt 2.000000 1.000000 0.000000
vt 0.000000 1.000000 0.000000
vt 0.000000 0.000000 0.000000
vt 10.000000 0.000000 0.000000
vt 10.000000 1.000000 0.000000
vt 0.000000 1.000000 0.000000
vt 5.000000 1.000000 0.000000
vt -5.000000 1.000000 0.000000
vt -5.000000 -1.000000 0.000000
vt 5.000000 -1.000000 0.000000
vt 5.000000 1.000000 0.000000
vt -5.000000 1.000000 0.000000
vt -5.000000 -1.000000 0.000000
vt 5.000000 -1.000000 0.000000
vt 0.000000 0.000000 0.000000
vt 2.000000 0.000000 0.000000
vt 2.000000 1.000000 0.000000
vt 0.000000 1.000000 0.000000
vt 0.000000 0.000000 0.000000
vt 10.000000 0.000000 0.000000
vt 10.000000 1.000000 0.000000
vt 0.000000 1.000000 0.000000
vt 0.000000 0.000000 0.000000
vt 2.000000 0.000000 0.000000
vt 2.000000 1.000000 0.000000
vt 0.000000 1.000000 0.000000
vt 0.000000 0.000000 0.000000
vt 10.000000 0.000000 0.000000
vt 10.000000 1.000000 0.000000
vt 0.000000 1.000000 0.000000
vt 5.000000 1.000000 0.000000
vt -5.000000 1.000000 0.000000
vt -5.000000 -1.000000 0.000000
vt 5.000000 -1.000000 0.000000
vt 5.000000 1.000000 0.000000
vt -5.000000 1.000000 0.000000
vt -5.000000 -1.000000 0.000000
vt 5.000000 -1.000000 0.000000
vt 0.000000 0.000000 0.000000
vt 2.000000 0.000000 0.000000
vt 2.000000 1.000000 0.000000
vt 0.000000 1.000000 0.000000
vt 0.000000 0.000000 0.000000
vt 10.000000 0.000000 0.000000
vt 10.000000 1.000000 0.000000
vt 0.000000 1.000000 0.000000
vt 0.000000 0.000000 0.000000
vt 2.000000 0.000000 0.000000
vt 2.000000 1.000000 0.000000
vt 0.000000 1.000000 0.000000
vt 0.000000 0.000000 0.000000
vt 10.000000 0.000000 0.000000
vt 10.000000 1.000000 0.000000
vt 0.000000 1.000000 0.000000
vt 5.000000 1.000000 0.000000
vt -5.000000 1.000000 0.000000
vt -5.000000 -1.000000 0.000000
vt 5.000000 -1.000000 0.000000
vt 5.000000 1.000000 0.000000
vt -5.000000 1.000000 0.000000
vt -5.000000 -1.000000 0.000000
vt 5.000000 -1.000000 0.000000
vt 0.000000 0.000000 0.000000
vt 2.000000 0.000000 0.000000
vt 2.000000 1.000000 0.000000
vt 0.000000 1.000000 0.000000
vt 0.000000 0.000000 0.000000
vt 10.000000 0.000000 0.000000
vt 10.000000 1.000000 0.000000
vt 0.000000 1.000000 0.000000
vt 0.000000 0.000000 0.000000
vt 2.000000 0.000000 0.000000
vt 2.000000 1.000000 0.000000
vt 0.000000 1.000000 0.000000
vt 0.000000 0.000000 0.000000
vt 10.000000 0.000000 0.000000
vt 10.000000 1.000000 0.000000
vt 0.000000 1.000000 0.000000
vt 5.000000 1.000000 0.000000
vt -5.000000 1.000000 0.000000
vt -5.000000 -1.000000 0.000000
vt 5.000000 -1.000000 0.000000
vt 5.000000 1.000000 0.000000
vt -5.000000 1.000000 0.000000
vt -5.000000 -1.000000 0.000000
vt 5.000000 -1.000000 0.000000
vt 0.000000 0.000000 0.000000
vt 2.000000 0.000000 0.000000
vt 2.000000 1.000000 0.000000
vt 0.000000 1.000000 0.000000
vt 0.000000 0.000000 0.000000
vt 10.000000 0.000000 0.000000
vt 10.000000 1.000000 0.000000
vt 0.000000 1.000000 0.000000
vt 0.000000 0.000000 0.000000
vt 2.000000 0.000000 0.000000
vt 2.000000 1.000000 0.000000
vt 0.000000 1.000000 0.000000
vt 0.000000 0.000000 0.000000
vt 10.000000 0.000000 0.000000
vt 10.000000 1.000000 0.000000
vt 0.000000 1.000000 0.000000
vt 5.000000 1.000000 0.000000
vt -5.000000 1.000000 0.000000
vt -5.000000 -1.000000 0.000000
vt 5.000000 -1.000000 0.000000
vt 5.000000 1.000000 0.000000
vt -5.000000 1.000000 0.000000
vt -5.000000 -1.000000 0.000000
vt 5.000000 -1.000000 0.000000
vt 0.000000 0.000000 0.000000
vt 2.000000 0.000000 0.000000
vt 2.000000 1.000000 0.000000
vt 0.000000 1.000000 0.000000
vt 0.000000 0.000000 0.000000
vt 10.000000 0.000000 0.000000
vt 10.000000 1.000000 0.000000
vt 0.000000 1.000000 0.000000
vt 0.000000 0.000000 0.000000
vt 2.000000 0.000000 0.000000
vt 2.000000 1.000000 0.000000
vt 0.000000 1.000000 0.000000
vt 0.000000 0.000000 0.000000
vt 10.000000 0.000000 0.000000
vt 10.000000 1.000000 0.000000
vt 0.000000 1.000000 0.000000
vt 5.000000 1.000000 0.000000
vt -5.000000 1.000000 0.000000
vt -5.000000 -1.000000 0.000000
vt 5.000000 -1.000000 0.000000
vt 5.000000 1.000000 0.000000
vt -5.000000 1.000000 0.000000
vt -5.000000 -1.000000 0.000000
vt 5.000000 -1.000000 0.000000
vn 0.000000 0.000000 0.100000
vn 0.000000 0.000000 0.100000
vn 0.000000 0.000000 0.100000
vn 0.000000 0.000000 0.100000
vn -0.100000 0.000000 0.000000
vn -0.100000 0.000000 0.000000
vn -0.100000 0.000000 0.000000
vn -0.100000 0.000000 0.000000
vn 0.000000 0.000000 -0.100000
vn 0.000000 0.000000 -0.100000
vn 0.000000 0.000000 -0.100000
vn 0.000000 0.000000 -0.100000
vn 0.100000 0.000000 0.000000
vn 0.100000 0.000000 0.000000
vn 0.100000 0.000000 0.000000
vn 0.100000 0.000000 0.000000
vn 0.000000 0.100000 0.000000
vn 0.000000 0.100000 0.000000
vn 0.000000 0.100000 0.000000
vn 0.000000 0.100000 0.000000
vn 0.000000 -0.100000 0.000000
vn 0.000000 -0.100000 0.000000
vn 0.000000 -0.100000 0.000000
vn 0.000000 -0.100000 0.000000
vn 0.000000 0.000000 0.100000
vn 0.000000 0.000000 0.100000
vn 0.000000 0.000000 0.100000
vn 0.000000 0.000000 0.100000
vn -0.100000 0.000000 0.000000
vn -0.100000 0.000000 0.000000
vn -0.100000 0.000000 0.000000
vn -0.100000 0.000000 0.000000
vn 0.000000 0.000000 -0.100000
vn 0.000000 0.000000 -0.100000
vn 0.000000 0.000000 -0.100000
vn 0.000000 0.000000 -0.100000
vn 0.100000 0.000000 0.000000
vn 0.100000 0.000000 0.000000
vn 0.100000 0.000000 0.000000
vn 0.100000 0.000000 0.000000
vn 0.000000 0.100000 0.000000
vn 0.000000 0.100000 0.000000
vn 0.000000 0.100000 0.000000
vn 0.000000 0.100000 0.000000
vn 0.000000 -0.100000 0.000000
vn 0.000000 -0.100000 0.000000
vn 0.000000 -0.100000 0.000000
vn 0.000000 -0.100000 0.000000
vn 0.000000 0.000000 0.100000
vn 0.000000 0.000000 0.100000
vn 0.000000 0.000000 0.100000
vn 0.000000 0.000000 0.100000
vn -0.100000 0.000000 0.000000
vn -0.100000 0.000000 0.000000
vn -0.100000 0.000000 0.000000
vn -0.100000 0.000000 0.000000
vn 0.000000 0.000000 -0.100000
vn 0.000000 0.000000 -0.100000
vn 0.000000 0.000000 -0.100000
vn 0.000000 0.000000 -0.100000
vn 0.100000 0.000000 0.000000
vn 0.100000 0.000000 0.000000
vn 0.100000 0.000000 0.000000
vn 0.100000 0.000000 0.000000
vn 0.000000 0.100000 0.000000
vn 0.000000 0.100000 0.000000
vn 0.000000 0.100000 0.000000
vn 0.000000 0.100000 0.000000
vn 0.000000 -0.100000 0.000000
vn 0.000000 -0.100000 0.000000
vn 0.000000 -0.100000 0.000000
vn 0.000000 -0.100000 0.000000
vn 0.000000 0.000000 0.100000
vn 0.000000 0.000000 0.100000
vn 0.000000 0.000000 0.100000
vn 0.000000 0.000000 0.100000
vn -0.100000 0.000000 0.000000
vn -0.100000 0.000000 0.000000
vn -0.100000 0.000000 0.000000
vn -0.100000 0.000000 0.000000
vn 0.000000 0.000000 -0.100000
vn 0.000000 0.000000 -0.100000
vn 0.000000 0.000000 -0.100000
vn 0.000000 0.000000 -0.100000
vn 0.100000 0.000000 0.000000
vn 0.100000 0.000000 0.000000
vn 0.100000 0.000000 0.000000
vn 0.100000 0.000000 0.000000
vn 0.000000 0.100000 0.000000
vn 0.000000 0.100000 0.000000
vn 0.000000 0.100000 0.000000
vn 0.000000 0.100000 0.000000
vn 0.000000 -0.100000 0.000000
vn 0.000000 -0.100000 0.000000
vn 0.000000 -0.100000 0.000000
vn 0.000000 -0.100000 0.000000
vn 0.000000 0.000000 0.100000
vn 0.000000 0.000000 0.100000
vn 0.000000 0.000000 0.100000
vn 0.000000 0.000000 0.100000
vn -0.100000 0.000000 0.000000
vn -0.100000 0.000000 0.000000
vn -0.100000 0.000000 0.000000
vn -0.100000 0.000000 0.000000
vn 0.000000 0.000000 -0.100000
vn 0.000000 0.000000 -0.100000
vn 0.000000 0.000000 -0.100000
vn 0.000000 0.000000 -0.100000
vn 0.100000 0.000000 0.000000
vn 0.100000 0.000000 0.000000
vn 0.100000 0.000000 0.000000
vn 0.100000 0.000000 0.000000
vn 0.000000 0.100000 0.000000
vn 0.000000 0.100000 0.000000
vn 0.000000 0.100000 0.000000
vn 0.000000 0.100000 0.000000
vn 0.000000 -0.100000 0.000000
vn 0.000000 -0.100000 0.000000
vn 0.000000 -0.100000 0.000000
vn 0.000000 -0.100000 0.000000
vn 0.000000 0.000000 0.100000
vn 0.000000 0.000000 0.100000
vn 0.000000 0.000000 0.100000
vn 0.000000 0.000000 0.100000
vn -0.100000 0.000000 0.000000
vn -0.100000 0.000000 0.000000
vn -0.100000 0.000000 0.000000
vn -0.100000 0.000000 0.000000
vn 0.000000 0.000000 -0.100000
vn 0.000000 0.000000 -0.100000
vn 0.000000 0.000000 -0.100000
vn 0.000000 0.000000 -0.100000
vn 0.100000 0.000000 0.000000
vn 0.100000 0.000000 0.000000
vn 0.100000 0.000000 0.000000
vn 0.100000 0.000000 0.000000
vn 0.000000 0.100000 0.000000
vn 0.000000 0.100000 0.000000
vn 0.000000 0.100000 0.000000
vn 0.000000 0.100000 0.000000
vn 0.000000 -0.100000 0.000000
vn 0.000000 -0.100000 0.000000
vn 0.000000 -0.100000 0.000000
vn 0.000000 -0.100000 0.000000
vn 0.000000 0.000000 0.100000
vn 0.000000 0.000000 0.100000
vn 0.000000 0.000000 0.100000
vn 0.000000 0.000000 0.100000
vn -0.100000 0.000000 0.000000
vn -0.100000 0.000000 0.000000
vn -0.100000 0.000000 0.000000
vn -0.100000 0.000000 0.000000
vn 0.000000 0.000000 -0.100000
vn 0.000000 0.000000 -0.100000
vn 0.000000 0.000000 -0.100000
vn 0.000000 0.000000 -0.100000
vn 0.100000 0.000000 0.000000
vn 0.100000 0.000000 0.000000
vn 0.100000 0.000000 0.000000
vn 0.100000 0.000000 0.000000
vn 0.000000 0.100000 0.000000
vn 0.000000 0.100000 0.000000
vn 0.000000 0.100000 0.000000
vn 0.000000 0.100000 0.000000
vn 0.000000 -0.100000 0.000000
vn 0.000000 -0.100000 0.000000
vn 0.000000 -0.100000 0.000000
vn 0.000000 -0.100000 0.000000
vn 0.000000 0.000000 0.100000
vn 0.000000 0.000000 0.100000
vn 0.000000 0.000000 0.100000
vn 0.000000 0.000000 0.100000
vn -0.100000 0.000000 0.000000
vn -0.100000 0.000000 0.000000
vn -0.100000 0.000000 0.000000
vn -0.100000 0.000000 0.000000
vn 0.000000 0.000000 -0.100000
vn 0.000000 0.000000 -0.100000
vn 0.000000 0.000000 -0.100000
vn 0.000000 0.000000 -0.100000
vn 0.100000 0.000000 0.000000
vn 0.100000 0.000000 0.000000
vn 0.100000 0.000000 0.000000
vn 0.100000 0.000000 0.000000
vn 0.000000 0.100000 0.000000
vn 0.000000 0.100000 0.000000
vn 0.000000 0.100000 0.000000
vn 0.000000 0.100000 0.000000
vn 0.000000 -0.100000 0.000000
vn 0.000000 -0.100000 0.000000
vn 0.000000 -0.100000 0.000000
vn 0.000000 -0.100000 0.000000
vn 0.000000 0.000000 0.100000
vn 0.000000 0.000000 0.100000
vn 0.000000 0.000000 0.100000
vn 0.000000 0.000000 0.100000
vn -0.100000 0.000000 0.000000
vn -0.100000 0.000000 0.000000
vn -0.100000 0.000000 0.000000
vn -0.100000 0.000000 0.000000
vn 0.000000 0.000000 -0.100000
vn 0.000000 0.000000 -0.100000
vn 0.000000 0.000000 -0.100000
vn 0.000000 0.000000 -0.100000
vn 0.100000 0.000000 0.000000
vn 0.100000 0.000000 0.000000
vn 0.100000 0.000000 0.000000
vn 0.100000 0.000000 0.000000
vn 0.000000 0.100000 0.000000
vn 0.000000 0.100000 0.000000
vn 0.000000 0.100000 0.000000
vn 0.000000 0.100000 0.000000
vn 0.000000 -0.100000 0.000000
vn 0.000000 -0.100000 0.000000
vn 0.000000 -0.100000 0.000000
vn 0.000000 -0.100000 0.000000
vn 0.000000 0.000000 0.100000
vn 0.000000 0.000000 0.100000
vn 0.000000 0.000000 0.100000
vn 0.000000 0.000000 0.100000
vn -0.100000 0.000000 0.000000
vn -0.100000 0.000000 0.000000
vn -0.100000 0.000000 0.000000
vn -0.100000 0.000000 0.000000
vn 0.000000 0.000000 -0.100000
vn 0.000000 0.000000 -0.100000
vn 0.000000 0.000000 -0.100000
vn 0.000000 0.000000 -0.100000
vn 0.100000 0.000000 0.000000
vn 0.100000 0.000000 0.000000
vn 0.100000 0.000000 0.000000
vn 0.100000 0.000000 0.000000
vn 0.000000 0.100000 0.000000
vn 0.000000 0.100000 0.000000
vn 0.000000 0.100000 0.000000
vn 0.000000 0.100000 0.000000
vn 0.000000 -0.100000 0.000000
vn 0.000000 -0.100000 0.000000
vn 0.000000 -0.100000 0.000000
vn 0.000000 -0.100000 0.000000
usemtl 191,191,191
f 2/1/1 6/2/2 4/4/4
f 4/4/4 6/2/2 8/3/3
f 1/5/5 2/6/6 3/8/8
f 3/8/8 2/6/6 4/7/7
f 5/9/9 1/10/10 7/12/12
f 7/12/12 1/10/10 3/11/11
f 6/13/13 5/14/14 8/16/16
f 8/16/16 5/14/14 7/15/15
f 8/17/17 7/18/18 4/20/20
f 4/20/20 7/18/18 3/19/19
f 5/21/21 6/22/22 1/24/24
f 1/24/24 6/22/22 2/23/23
f 10/25/25 14/26/26 12/28/28
f 12/28/28 14/26/26 16/27/27
f 9/29/29 10/30/30 11/32/32
f 11/32/32 10/30/30 12/31/31
f 13/33/33 9/34/34 15/36/36
f 15/36/36 9/34/34 11/35/35
f 14/37/37 13/38/38 16/40/40
f 16/40/40 13/38/38 15/39/39
f 16/41/41 15/42/42 12/44/44
f 12/44/44 15/42/42 11/43/43
f 13/45/45 14/46/46 9/48/48
f 9/48/48 14/46/46 10/47/47
f 18/49/49 22/50/50 20/52/52
f 20/52/52 22/50/50 24/51/51
f 17/53/53 18/54/54 19/56/56
f 19/56/56 18/54/54 20/55/55
f 21/57/57 17/58/58 23/60/60
f 23/60/60 17/58/58 19/59/59
f 22/61/61 21/62/62 24/64/64
f 24/64/64 21/62/62 23/63/63
f 24/65/65 23/66/66 20/68/68
f 20/68/68 23/66/66 19/67/67
f 21/69/69 22/70/70 17/72/72
f 17/72/72 22/70/70 18/71/71
f 26/73/73 30/74/74 28/76/76
f 28/76/76 30/74/74 32/75/75
f 25/77/77 26/78/78 27/80/80
f 27/80/80 26/78/78 28/79/79
f 29/81/81 25/82/82 31/84/84
f 31/84/84 25/82/82 27/83/83
f 30/85/85 29/86/86 32/88/88
f 32/88/88 29/86/86 31/87/87
f 32/89/89 31/90/90 28/92/92
f 28/92/92 31/90/90 27/91/91
f 29/93/93 30/94/94 25/96/96
f 25/96/96 30/94/94 26/95/95
f 34/97/97 38/98/98 36/100/100
f 36/100/100 38/98/98 40/99/99
f 33/101/101 34/102/102 35/104/104
f 35/104/104 34/102/102 36/103/103
f 37/105/105 33/106/106 39/108/108
f 39/108/108 33/106/106 35/107/107
f 38/109/109 37/110/110 40/112/112
f 40/112/112 37/110/110 39/111/111
f 40/113/113 39/114/114 36/116/116
f 36/116/116 39/114/114 35/115/115
f 37/117/117 38/118/118 33/120/120
f 33/120/120 38/118/118 34/119/119
f 42/121/121 46/122/122 44/124/124
f 44/124/124 46/122/122 48/123/123
f 41/125/125 42/126/126 43/128/128
f 43/128/128 42/126/126 44/127/127
f 45/129/129 41/130/130 47/132/132
f 47/132/132 41/130/130 43/131/131
f 46/133/133 45/134/134 48/136/136
f 48/136/136 45/134/134 47/135/135
f 48/137/137 47/138/138 44/140/140
f 44/140/140 47/138/138 43/139/139
f 45/141/141 46/142/142 41/144/144
f 41/144/144 46/142/142 42/143/143
f 50/145/145 54/146/146 52/148/148
f 52/148/148 54/146/146 56/147/147
f 49/149/149 50/150/150 51/152/152
f 51/152/152 50/150/150 52/151/151
f 53/153/153 49/154/154 55/156/156
f 55/156/156 49/154/154 51/155/155
f 54/157/157 53/158/158 56/160/160
f 56/160/160 53/158/158 55/159/159
f 56/161/161 55/162/162 52/164/164
f 52/164/164 55/162/162 51/163/163
f 53/165/165 54/166/166 49/168/168
f 49/168/168 54/166/166 50/167/167
f 58/169/169 62/170/170 60/172/172
f 60/172/172 62/170/170 64/171/171
f 57/173/173 58/174/174 59/176/176
f 59/176/176 58/174/174 60/175/175
f 61/177/177 57/178/178 63/180/180
f 63/180/180 57/178/178 59/179/179
f 62/181/181 61/182/182 64/184/184
f 64/184/184 61/182/182 63/183/183
f 64/185/185 63/186/186 60/188/188
f 60/188/188 63/186/186 59/187/187
f 61/189/189 62/190/190 57/192/192
f 57/192/192 62/190/190 58/191/191
f 66/193/193 70/194/194 68/196/196
f 68/196/196 70/194/194 72/195/195
f 65/197/197 66/198/198 67/200/200
f 67/200/200 66/198/198 68/199/199
f 69/201/201 65/202/202 71/204/204
f 71/204/204 65/202/202 67/203/203
f 70/205/205 69/206/206 72/208/208
f 72/208/208 69/206/206 71/207/207
f 72/209/209 71/210/210 68/212/212
f 68/212/212 71/210/210 67/211/211
f 69/213/213 70/214/214 65/216/216
f 65/216/216 70/214/214 66/215/215
f 74/217/217 78/218/218 76/220/220
f 76/220/220 78/218/218 80/219/219
f 73/221/221 74/222/222 75/224/224
f 75/224/224 74/222/222 76/223/223
f 77/225/225 73/226/226 79/228/228
f 79/228/228 73/226/226 75/227/227
f 78/229/229 77/230/230 80/232/232
f 80/232/232 77/230/230 79/231/231
f 80/233/233 79/234/234 76/236/236
f 76/236/236 79/234/234 75/235/235
f 77/237/237 78/238/238 73/240/240
f 73/240/240 78/238/238 74/239/239
# 80 vertices
# 240 texture params
# 240 normals
# 120 facets

# 1 groups
